<svg width="211" height="33" viewBox="0 0 211 33" fill="none" xmlns="http://www.w3.org/2000/svg">
<path d="M22.1 17.9C23.9 16.1 24.8 13.6 24.8 10.8C24.8 5.9 21.4 0.599998 14.1 0.599998H0.0999985V32.4H4V20.9H11.1L21.4 32.2L21.5 32.3H26.7L16 20.7C18.5 20.4 20.6 19.4 22.1 17.9ZM4 4.4H14.1C16.1 4.4 17.7 5 18.9 6.2C20 7.4 20.7 9 20.7 10.8C20.7 14.9 18.2 17.2 13.9 17.2H4C4 17.2 4 4.4 4 4.4Z" fill="white"/>
<path d="M43.9 16.4C43.9 24.3 48.9 32.8 59.9 32.8H60.7V29H59.9C51.6 29 47.8 22.4 47.8 16.4C47.8 12.7 49 9.3 51.3 7.1C53.4 5 56.4 3.8 60 3.8H60.8V0H60C48.9 0.1 43.9 8.3 43.9 16.4Z" fill="white"/>
<path d="M98.8 0.0999985H98V3.9H98.8C107.2 3.9 111 10.2 111 16.5C111 22.6 107.2 29.1 98.8 29.1H98V32.9H98.8C109.7 32.9 114.8 24.4 114.8 16.6C114.8 11.8 113.2 7.6 110.2 4.6C107.3 1.7 103.4 0.0999985 98.8 0.0999985Z" fill="white"/>
<path d="M151 17.5L139.9 0.599998H135.9V32.4H139.9V7.4L150.3 23.2H151.9L162.2 7.5V32.4H166.1V0.599998H162L151 17.5Z" fill="white"/>
<path d="M210.6 2.5V0.599998H187.2V4.4H204.6L186.2 30.3V32.4H210.6V28.5H192L210.6 2.6V2.5Z" fill="white"/>
</svg>
